<mxfile host="app.diagrams.net" modified="2024-01-25T04:44:20.564Z" agent="Mozilla/5.0 (Macintosh; Intel Mac OS X 10_15_7) AppleWebKit/537.36 (KHTML, like Gecko) Chrome/120.0.0.0 Safari/537.36" version="23.0.1" etag="vxUJpyciY1nJB4xY1IQF" type="github">
  <diagram name="Trang-1" id="8IVBTOcUzjoseQhFMBnH">
    <mxGraphModel>
      <root>
        <mxCell id="0" />
        <mxCell id="1" parent="0" />
      </root>
    </mxGraphModel>
  </diagram>
</mxfile>
